<svg xmlns="http://www.w3.org/2000/svg" width="797.896" height="376.598" viewBox="0 0 797.896 376.598">
    <defs>
        <filter id="a" x="0" y="267.5" width="797.896" height="109.098" filterUnits="userSpaceOnUse">
            <feOffset dy="5"/>
            <feGaussianBlur stdDeviation="12.5" result="blur"/>
            <feFlood flood-opacity=".851"/>
            <feComposite operator="in" in2="blur"/>
            <feComposite in="SourceGraphic"/>
        </filter>
        <filter id="b" x="238.245" y="0" width="322" height="322" filterUnits="userSpaceOnUse">
            <feOffset dy="10"/>
            <feGaussianBlur stdDeviation="12.5" result="blur-2"/>
            <feFlood flood-opacity=".678"/>
            <feComposite operator="in" in2="blur-2"/>
            <feComposite in="SourceGraphic"/>
        </filter>
    </defs>
    <g data-name="Component 12 – 1">
        <g style="filter:url(#a)">
            <path data-name="Union 1" d="m665.173 33.1 5.342-6.968h11.612a1.421 1.421 0 0 0 1.487-1.161l.139-.58a1.631 1.631 0 0 0 .071-.442q0-.721-.906-.72H671.3q-2.742 0-2.741-2.159a5.513 5.513 0 0 1 .186-1.324l2.182-8.131a4.2 4.2 0 0 1 4.414-3.484h20.9l-5.333 6.969h-11.614a1.423 1.423 0 0 0-1.487 1.162l-.14.58a1.744 1.744 0 0 0-.069.442q0 .721.907.72h11.613q2.647 0 2.647 2.346a6.9 6.9 0 0 1-.255 1.718l-2.021 7.548a4.2 4.2 0 0 1-4.413 3.484zm-54.625 0q-2.742 0-2.741-2.183a5.241 5.241 0 0 1 .185-1.3l5.76-21.485h8.13l-4.506 16.84a1.75 1.75 0 0 0-.07.441q0 .72.907.72h5.8a1.424 1.424 0 0 0 1.488-1.161l4.505-16.84h8.13l-5.76 21.485a4.242 4.242 0 0 1-4.413 3.484zm-89.486 0q-2.743 0-2.741-2.16a5.52 5.52 0 0 1 .185-1.324l4.831-18a4.228 4.228 0 0 1 4.413-3.486h17.42q2.739.024 2.741 2.184a5.268 5.268 0 0 1-.186 1.3l-4.83 18a4.2 4.2 0 0 1-4.414 3.484zm9.151-16.838-2.324 8.709a1.771 1.771 0 0 0-.068.441c0 .48.3.72.9.72h5.808a1.423 1.423 0 0 0 1.486-1.161l2.323-8.709a2.182 2.182 0 0 0 .046-.419q0-.718-.882-.743H531.7a1.429 1.429 0 0 0-1.487 1.16zm-62.6 16.838q-2.739 0-2.74-2.183a5.241 5.241 0 0 1 .185-1.3l5.76-21.485h8.13l-4.507 16.84a1.778 1.778 0 0 0-.068.441c0 .48.3.72.906.72h5.806a1.422 1.422 0 0 0 1.486-1.161l4.507-16.84h8.129l-5.76 21.485a4.242 4.242 0 0 1-4.414 3.484zm-104.539 0q-2.74 0-2.741-2.16a5.525 5.525 0 0 1 .186-1.324l4.831-18a4.228 4.228 0 0 1 4.414-3.484h17.419q2.74.024 2.741 2.184a5.271 5.271 0 0 1-.186 1.3l-4.83 18a4.2 4.2 0 0 1-4.414 3.484zm9.152-16.838L369.9 24.97a1.75 1.75 0 0 0-.07.441q0 .72.906.72h5.808a1.423 1.423 0 0 0 1.486-1.161l2.322-8.709a2.117 2.117 0 0 0 .047-.419q0-.718-.882-.743h-5.808a1.426 1.426 0 0 0-1.483 1.161zM328.26 33.1l6.69-24.969h8.13L336.389 33.1zm-49.916 0q-2.74 0-2.741-2.16a5.481 5.481 0 0 1 .186-1.324l2.345-8.709a4.2 4.2 0 0 1 4.414-3.484h12.775l.3-1.161a1.706 1.706 0 0 0 .069-.443q0-.718-.905-.719h-12.773l5.342-6.969h15.1q2.741 0 2.741 2.161a5.547 5.547 0 0 1-.185 1.323L299.248 33.1zm7.13-9.29-.3 1.161a1.672 1.672 0 0 0-.07.441q0 .72.905.72h6.969l.952-3.484h-6.969a1.424 1.424 0 0 0-1.487 1.161zm-38.5 9.29 5.761-21.485a4.2 4.2 0 0 1 4.413-3.484h20.9l-5.342 6.969h-11.613a1.422 1.422 0 0 0-1.486 1.162L255.1 33.1zm-25.548 0q-2.74 0-2.74-2.16a5.526 5.526 0 0 1 .186-1.324l4.83-18a4.2 4.2 0 0 1 4.414-3.484h17.42q2.647 0 2.647 2.346a6.859 6.859 0 0 1-.256 1.719l-2.322 8.71q-.788 2.9-4.274 2.9h-12.777l-.3 1.161a1.738 1.738 0 0 0-.068.441q0 .72.9.72h12.775L236.52 33.1zm9.15-16.838-.625 2.321h6.968a1.422 1.422 0 0 0 1.487-1.16l.3-1.161a1.71 1.71 0 0 0 .07-.443q0-.718-.905-.719h-5.807a1.43 1.43 0 0 0-1.491 1.16zM188.908 33.1l5.343-6.968h11.613a1.424 1.424 0 0 0 1.487-1.161l.138-.58a1.7 1.7 0 0 0 .071-.442q0-.721-.905-.72H195.04q-2.74 0-2.74-2.159a5.514 5.514 0 0 1 .186-1.324l2.183-8.131a4.2 4.2 0 0 1 4.412-3.484h20.9l-5.337 6.969h-11.613a1.423 1.423 0 0 0-1.487 1.162l-.139.58a1.667 1.667 0 0 0-.069.442q0 .721.9.72h11.615q2.646 0 2.647 2.346a6.824 6.824 0 0 1-.256 1.718l-2.021 7.548a4.2 4.2 0 0 1-4.413 3.484zm-25.547 0q-2.741 0-2.741-2.16a5.566 5.566 0 0 1 .185-1.324l2.346-8.709a4.2 4.2 0 0 1 4.414-3.484h12.775l.3-1.161a1.673 1.673 0 0 0 .07-.443q0-.718-.905-.719h-12.774l5.341-6.969h15.1q2.742 0 2.741 2.161a5.547 5.547 0 0 1-.185 1.323L184.264 33.1zm7.131-9.29-.3 1.161a1.71 1.71 0 0 0-.07.441q0 .72.906.72h6.968l.953-3.484h-6.968a1.424 1.424 0 0 0-1.489 1.161zM72.8 33.1q-2.74 0-2.74-2.16a5.561 5.561 0 0 1 .185-1.324l4.831-18a4.2 4.2 0 0 1 4.408-3.486h17.422q2.646 0 2.647 2.346A7.018 7.018 0 0 1 99.3 12.2l-2.324 8.71q-.79 2.9-4.274 2.9H79.927l-.3 1.161a1.732 1.732 0 0 0-.067.441q0 .72.9.72h12.775L87.893 33.1zm9.148-16.84-.628 2.321h6.968a1.422 1.422 0 0 0 1.487-1.16l.3-1.161a1.705 1.705 0 0 0 .069-.443q0-.718-.907-.719h-5.8a1.427 1.427 0 0 0-1.489 1.162zm554.17 16.84L644.99 0h8.129l-2.182 8.129h12.775q2.739 0 2.741 2.183a5.267 5.267 0 0 1-.185 1.3l-4.831 18a4.2 4.2 0 0 1-4.414 3.484zm9.987-6.967h6.968a1.423 1.423 0 0 0 1.487-1.162l2.322-8.71a1.531 1.531 0 0 0 .07-.442q0-.718-.905-.719h-6.969zM594.276 33.1 603.148 0h8.131l-8.873 33.1zm-25.57 0q-2.742 0-2.741-2.161a5.565 5.565 0 0 1 .185-1.323l7.016-26.13A4.2 4.2 0 0 1 577.579 0h22.064l-5.365 6.968H581.5a1.387 1.387 0 0 0-1.463 1.161l-4.505 16.84a1.66 1.66 0 0 0-.07.441q0 .721.905.721h16.259l-5.339 6.969zm-69.715 0 4.971-18.581h-5.807l1.719-6.386h5.806l1.372-5.233h8.148l-1.389 5.23h5.806l-1.717 6.386h-5.808L507.121 33.1zm-57.506 0 1.858-6.967h7.294l-1.347-13.521L436.26 33.1h-9.292L448.035 0h9.291l3.321 33.1zm-47.058 0 4.673-17.422h-5.806l1.392-5.226h5.808l1.88-6.968A4.2 4.2 0 0 1 406.783 0h12.775l-5.366 6.968h-3.483a1.39 1.39 0 0 0-1.464 1.161l-.626 2.323h5.807l-1.393 5.226h-5.808L402.556 33.1zm-84.729 0 4.97-18.581h-5.807l1.719-6.389h5.807l1.37-5.226h8.153l-1.394 5.226h5.806l-1.722 6.386h-5.8L317.827 33.1zm-162.593 0 6.688-24.969a1.467 1.467 0 0 0 .071-.441q0-.721-.929-.72h-5.784l-6.99 26.13h-8.153L139 6.968h-6.969L125.04 33.1h-8.106L125.783 0h34.84q2.74 0 2.741 2.16a5.566 5.566 0 0 1-.185 1.324L155.235 33.1zm-90.565 0 4.505-16.839a1.529 1.529 0 0 0 .07-.442q0-.718-.906-.719h-6.99l-4.809 18h-8.129L49.153 0h8.131L55.1 8.129h12.774q2.742 0 2.74 2.183a5.229 5.229 0 0 1-.186 1.3L64.67 33.1zm-34.822 0 4.97-18.581h-5.806L22.6 8.13h5.807l1.37-5.23h8.153l-1.394 5.23h5.807l-1.718 6.386h-5.808L29.847 33.1zM713.552 0h8.129l-1.555 5.806-9.686 5.808zM703.1 0h8.129l-1.556 5.806-9.685 5.808zM10.452 5.806 12.008 0h8.129l-3.112 11.614zM0 5.806 1.556 0h8.129L6.573 11.614zm335.576 0L337.132 0h8.129L343.7 5.806z" transform="translate(38.063 300.5)" style="fill:#fff;stroke:transparent;stroke-miterlimit:10"/>
        </g>
        <g data-name="Group 281">
            <g style="filter:url(#b)">
                <circle data-name="Ellipse 1" cx="123.5" cy="123.5" r="123.5" transform="translate(275.745 27.5)" style="fill:#fdfdfd"/>
            </g>
            <path data-name="Path 28" d="m-2095.721-2081.514-5.058 119.351s.338 4.316-4.248 1.753l-16.048-10.384 4.317-101.413s-15.78 26.3-22.117 50.031l7.956-1.888-10.381 61.764s31.691 19.149 37.22 24.948c0 0 1.618 6.742 5.4 8.63v23.8a113.726 113.726 0 0 1-104.12-113.308 113.71 113.71 0 0 1 112.521-113.709c-3.933 11.069-12.36 35.749-16.167 54.472z" transform="translate(2488.656 2169.718)" style="fill:#c10202"/>
            <path data-name="Path 29" d="M-1884.337-2018.2a113.739 113.739 0 0 1-102.292 113.153v-23.641c3.776-1.887 5.395-8.63 5.395-8.63 5.528-5.8 37.22-24.948 37.22-24.948l-10.384-61.766 7.958 1.889c-6.34-23.736-22.118-50.035-22.118-50.035l4.316 101.414-16.049 10.387c-4.585 2.561-4.247-1.755-4.247-1.755l-5.058-119.352 10.721 4.047c-3.8-18.706-12.215-43.351-16.154-54.437a113.712 113.712 0 0 1 110.692 113.674z" transform="translate(2397.635 2169.692)" style="fill:#0c2340"/>
        </g>
    </g>
</svg>
