<svg xmlns="http://www.w3.org/2000/svg" width="29.54" height="29.54" viewBox="0 0 29.54 29.54">
    <g data-name="Component 28 – 1">
        <path data-name="Union 3" d="M8.572 28.54A8.582 8.582 0 0 1 0 19.967V8.572A8.582 8.582 0 0 1 8.572 0h11.395a8.582 8.582 0 0 1 8.573 8.572v11.395a8.582 8.582 0 0 1-8.573 8.574zM2.685 8.572v11.395a5.893 5.893 0 0 0 5.888 5.888h11.394a5.893 5.893 0 0 0 5.888-5.888V8.572a5.894 5.894 0 0 0-5.888-5.887H8.572a5.894 5.894 0 0 0-5.887 5.887zm4.674 5.7a7.028 7.028 0 1 1 7.028 7.028 7.037 7.037 0 0 1-7.028-7.03zm2.526 0a4.5 4.5 0 1 0 4.5-4.5 4.507 4.507 0 0 0-4.5 4.498zm10.267-7.5a1.674 1.674 0 1 1 1.674 1.674 1.674 1.674 0 0 1-1.674-1.678z" style="stroke:transparent;stroke-miterlimit:10" transform="translate(.5 .5)"/>
    </g>
</svg>
