<svg data-name="Icon zocial-email" xmlns="http://www.w3.org/2000/svg" width="22.346" height="15.084" viewBox="0 0 22.346 15.084">
    <path data-name="Icon zocial-email" d="M0 13.748V1.332Q0 1.31.065.923l7.3 6.249-7.283 7a1.826 1.826 0 0 1-.086-.431zM.97.065A.929.929 0 0 1 1.336 0H21.01a1.22 1.22 0 0 1 .388.065l-7.327 6.267-.97.776-1.918 1.573-1.917-1.57-.97-.776zM.992 15.02 8.34 7.974l2.844 2.306 2.844-2.307 7.348 7.046a1.035 1.035 0 0 1-.366.065H1.336a.976.976 0 0 1-.345-.065zm14.006-7.844L22.281.927a1.286 1.286 0 0 1 .065.409v12.412a1.652 1.652 0 0 1-.065.431z"/>
</svg>
