<svg xmlns="http://www.w3.org/2000/svg" width="61" height="61" viewBox="0 0 61 61">
    <g data-name="Component 15 – 1">
        <path data-name="Union 2" d="M18.323 57.643A30.1 30.1 0 1 1 30 60a29.91 29.91 0 0 1-11.677-2.357zM2.307 29.947A27.692 27.692 0 1 0 30 2.254 27.724 27.724 0 0 0 2.307 29.947zm2.4.044A25.291 25.291 0 0 1 29.733 4.7a103.25 103.25 0 0 0-3.6 12.115l2.385-.9L27.4 42.46s.075.96-.945.39l-3.569-2.31.96-22.556a52.131 52.131 0 0 0-4.919 11.128l1.77-.42-2.31 13.738s7.049 4.259 8.278 5.549c0 0 .36 1.5 1.2 1.92v5.294A25.294 25.294 0 0 1 4.707 29.99zM32.542 49.9c.84-.42 1.2-1.92 1.2-1.92 1.229-1.289 8.278-5.548 8.278-5.548l-2.31-13.738 1.77.42a52.142 52.142 0 0 0-4.92-11.129l.96 22.556-3.569 2.311c-1.02.57-.945-.39-.945-.39l-1.124-26.548 2.385.9a103.088 103.088 0 0 0-3.594-12.107 25.294 25.294 0 0 1 1.869 50.45z" style="fill:#fff;stroke:transparent;stroke-miterlimit:10" transform="translate(.5 .5)"/>
    </g>
</svg>
