<svg xmlns="http://www.w3.org/2000/svg" width="402.481" height="61" viewBox="0 0 402.481 61">
    <defs>
        <style>
            .cls-1{fill:#fff}
        </style>
    </defs>
    <g id="Component_16_1" data-name="Component 16 – 1" transform="translate(.5 .5)">
        <g id="Group_257" data-name="Group 257" transform="translate(68 22.243)">
            <path id="Path_1" data-name="Path 1" class="cls-1" d="M-1759.8-1647.859h-6.987l-2.472 3.225h5.912q.419 0 .419.333a.8.8 0 0 1-.032.2l-.14.537h-5.912a1.943 1.943 0 0 0-2.042 1.613l-1.085 4.03a2.535 2.535 0 0 0-.086.613q0 1 1.268 1h9.674l2.665-9.943a2.545 2.545 0 0 0 .086-.612q-.004-.995-1.268-.996zm-4.385 8.331h-3.225q-.419 0-.419-.333a.776.776 0 0 1 .032-.2l.139-.537a.659.659 0 0 1 .688-.538h3.225z" transform="translate(1899.774 1651.621)"/>
            <path id="Path_2" data-name="Path 2" class="cls-1" d="M-1686.5-1656.792h3.762l.72-2.687h-3.762z" transform="translate(1841.795 1659.479)"/>
            <path id="Path_3" data-name="Path 3" class="cls-1" d="M-1839.948-1646.773q0-1.086-1.225-1.086h-8.062a1.944 1.944 0 0 0-2.042 1.613l-2.236 8.33a2.56 2.56 0 0 0-.086.613q0 1 1.268 1h6.987l2.472-3.225h-5.912q-.419 0-.419-.333a.805.805 0 0 1 .032-.2l.14-.537h5.912a1.8 1.8 0 0 0 1.978-1.343l1.075-4.031a3.177 3.177 0 0 0 .118-.801zm-4.386 2.677-.139.537a.658.658 0 0 1-.688.537h-3.225l.29-1.074a.662.662 0 0 1 .688-.538h2.687q.419 0 .419.333a.789.789 0 0 1-.032.201z" transform="translate(1954.801 1651.621)"/>
            <path id="Path_4" data-name="Path 4" class="cls-1" d="M-1638.683-1647.859h-8.062a1.956 1.956 0 0 0-2.042 1.613l-2.236 8.33a2.549 2.549 0 0 0-.086.613q0 1 1.269 1h8.062a1.944 1.944 0 0 0 2.042-1.612l2.236-8.33a2.435 2.435 0 0 0 .086-.6q0-1.003-1.269-1.014zm-3.16 3.763-1.075 4.031a.658.658 0 0 1-.687.537h-2.688q-.419 0-.419-.333a.808.808 0 0 1 .032-.2l1.075-4.031a.661.661 0 0 1 .688-.538h2.687q.408.011.408.344a.993.993 0 0 1-.021.186z" transform="translate(1817.864 1651.621)"/>
            <path id="Path_5" data-name="Path 5" class="cls-1" d="M-1714.755-1652.91h-2.687l.645-2.419h-3.773l-.634 2.419h-2.687l-.8 2.956h2.691l-2.3 8.6h3.762l2.3-8.6h2.687z" transform="translate(1867.622 1656.672)"/>
            <path id="Path_6" data-name="Path 6" class="cls-1" d="M-1696.956-1636.3h3.762l3.1-11.555h-3.762z" transform="translate(1848.868 1651.621)"/>
            <path id="Path_7" data-name="Path 7" class="cls-1" d="M-1808.453-1647.859a1.944 1.944 0 0 0-2.042 1.613l-2.666 9.943h3.761l2.086-7.792a.659.659 0 0 1 .688-.538h5.375l2.472-3.225z" transform="translate(1927.454 1651.621)"/>
            <path id="Path_8" data-name="Path 8" class="cls-1" d="M-1595.934-1656.255h1.612l2.483-3.225h-5.912a1.944 1.944 0 0 0-2.043 1.612l-.87 3.225h-2.687l-.645 2.419h2.687l-2.161 8.062h3.762l2.16-8.062h2.688l.645-2.419h-2.687l.29-1.075a.643.643 0 0 1 .678-.537z" transform="translate(1786.003 1659.479)"/>
            <path id="Path_9" data-name="Path 9" class="cls-1" d="m-2151.27-1656.792 3.042 2.688 1.44-5.375h-3.762z" transform="translate(2156.106 1659.479)"/>
            <path id="Path_10" data-name="Path 10" class="cls-1" d="M-2126.428-1652.91h-2.687l.645-2.419h-3.773l-.634 2.419h-2.687l-.8 2.956h2.687l-2.3 8.6h3.762l2.3-8.6h2.687z" transform="translate(2146.023 1656.672)"/>
            <path id="Path_11" data-name="Path 11" class="cls-1" d="m-2166.211-1656.792 3.042 2.688 1.44-5.375h-3.762z" transform="translate(2166.211 1659.479)"/>
            <path id="Path_12" data-name="Path 12" class="cls-1" d="M-1884.617-1643.29h-5.375q-.418 0-.419-.333a.769.769 0 0 1 .032-.2l.065-.268a.659.659 0 0 1 .688-.538h5.374l2.472-3.225h-9.674a1.944 1.944 0 0 0-2.042 1.613l-1.01 3.763a2.537 2.537 0 0 0-.086.612q0 1 1.268 1h5.375q.419 0 .419.333a.79.79 0 0 1-.033.2l-.064.269a.658.658 0 0 1-.688.537h-5.374l-2.473 3.225h9.674a1.943 1.943 0 0 0 2.042-1.612l.935-3.493a3.169 3.169 0 0 0 .118-.8q.001-1.083-1.224-1.083z" transform="translate(1983.585 1651.621)"/>
            <path id="Path_13" data-name="Path 13" class="cls-1" d="M-2094.59-1654.707q0-1.01-1.268-1.01h-5.912l1.011-3.762h-3.763l-4.105 15.317h3.762l2.225-8.33h3.235q.42 0 .419.333a.706.706 0 0 1-.032.2l-2.085 7.793h3.762l2.665-9.943a2.426 2.426 0 0 0 .086-.598z" transform="translate(2127.269 1659.479)"/>
            <path id="Path_14" data-name="Path 14" class="cls-1" d="M-2053.639-1647.859h-8.062a1.944 1.944 0 0 0-2.042 1.613l-2.236 8.33a2.558 2.558 0 0 0-.086.613q0 1 1.268 1h6.987l2.472-3.225h-5.912q-.419 0-.418-.333a.8.8 0 0 1 .031-.2l.14-.537h5.911a1.8 1.8 0 0 0 1.978-1.343l1.075-4.031a3.231 3.231 0 0 0 .118-.8q.001-1.087-1.224-1.087zm-3.16 3.763-.14.537a.658.658 0 0 1-.688.537h-3.225l.291-1.074a.661.661 0 0 1 .688-.538h2.687c.28 0 .419.111.419.333a.8.8 0 0 1-.033.201z" transform="translate(2098.485 1651.621)"/>
            <path id="Path_15" data-name="Path 15" class="cls-1" d="M-1922.906-1646.859q0-1-1.269-1h-6.987l-2.472 3.225h5.912q.419 0 .419.333a.778.778 0 0 1-.032.2l-.139.537h-5.912a1.944 1.944 0 0 0-2.042 1.613l-1.086 4.03a2.561 2.561 0 0 0-.086.613q0 1 1.268 1h9.674l2.666-9.943a2.569 2.569 0 0 0 .086-.608zm-5.654 7.33h-3.224q-.42 0-.42-.333a.8.8 0 0 1 .032-.2l.14-.537a.659.659 0 0 1 .688-.538h3.224z" transform="translate(2010.933 1651.621)"/>
            <path id="Path_16" data-name="Path 16" class="cls-1" d="M-1977.566-1658.48q0-1-1.268-1h-16.123l-4.1 15.317h3.751l3.236-12.092h3.225l-3.236 12.092h3.773l3.235-12.092h2.677q.43 0 .43.333a.69.69 0 0 1-.033.2l-3.1 11.555h3.762l3.676-13.7a2.581 2.581 0 0 0 .095-.613z" transform="translate(2053.167 1659.479)"/>
            <path id="Path_17" data-name="Path 17" class="cls-1" d="m-1287.061-1647.859-2.085 7.793a.659.659 0 0 1-.688.537h-2.687q-.42 0-.42-.333a.818.818 0 0 1 .032-.2l2.086-7.793h-3.762l-2.666 9.943a2.43 2.43 0 0 0-.086.6q0 1.01 1.268 1.01h8.062a1.963 1.963 0 0 0 2.042-1.612l2.665-9.943z" transform="translate(1578.619 1651.621)"/>
            <path id="Path_18" data-name="Path 18" class="cls-1" d="M-1242.827-1654.707q0-1.01-1.268-1.01h-5.912l1.01-3.762h-3.762l-4.106 15.317h9.674a1.944 1.944 0 0 0 2.042-1.612l2.236-8.33a2.442 2.442 0 0 0 .086-.603zm-4.429 2.752-1.075 4.031a.658.658 0 0 1-.688.537h-3.225l1.376-5.106h3.225q.419 0 .419.333a.7.7 0 0 1-.032.205z" transform="translate(1551.249 1659.479)"/>
            <path id="Path_19" data-name="Path 19" class="cls-1" d="m-1546.1-1659.479-9.75 15.317h4.3l6.03-9.48.624 6.256h-3.376l-.86 3.224h8.868l-1.537-15.317z" transform="translate(1753.443 1659.479)"/>
            <path id="Path_20" data-name="Path 20" class="cls-1" d="m-1164.122-1659.479-1.44 5.375 4.482-2.688.72-2.687z" transform="translate(1489.504 1659.479)"/>
            <path id="Path_21" data-name="Path 21" class="cls-1" d="m-1149.18-1659.479-1.44 5.375 4.482-2.688.72-2.687z" transform="translate(1479.4 1659.479)"/>
            <path id="Path_22" data-name="Path 22" class="cls-1" d="m-1312.572-1659.479-4.106 15.317h3.762l4.106-15.317z" transform="translate(1591.699 1659.479)"/>
            <path id="Path_23" data-name="Path 23" class="cls-1" d="M-1209.484-1644.1a.658.658 0 0 1 .688-.538h5.375l2.473-3.225h-9.674a1.944 1.944 0 0 0-2.043 1.613l-1.01 3.763a2.552 2.552 0 0 0-.086.612q0 1 1.268 1h5.374q.419 0 .419.333a.764.764 0 0 1-.033.2l-.064.269a.658.658 0 0 1-.688.537h-5.374l-2.472 3.225h9.674a1.943 1.943 0 0 0 2.042-1.612l.935-3.493a3.2 3.2 0 0 0 .118-.8q0-1.085-1.225-1.085h-5.374q-.42 0-.42-.333a.8.8 0 0 1 .032-.2z" transform="translate(1523.161 1651.621)"/>
            <path id="Path_24" data-name="Path 24" class="cls-1" d="m-1446.842-1652.91.645-2.419h-3.773l-.634 2.419h-2.687l-.8 2.956h2.688l-2.3 8.6h3.762l2.3-8.6h2.688l.8-2.956z" transform="translate(1684.625 1656.672)"/>
            <path id="Path_25" data-name="Path 25" class="cls-1" d="M-1352.754-1647.72a.769.769 0 0 1 .033-.2l2.085-7.793a.642.642 0 0 1 .677-.537h5.912l2.483-3.225h-10.211a1.944 1.944 0 0 0-2.042 1.612l-3.246 12.093a2.568 2.568 0 0 0-.086.612q0 1 1.268 1h8.6l2.472-3.224h-7.524q-.421-.005-.421-.338z" transform="translate(1619.069 1659.479)"/>
            <path id="Path_26" data-name="Path 26" class="cls-1" d="M-1493.474-1640.065a.658.658 0 0 1-.688.537h-2.687q-.42 0-.42-.333a.821.821 0 0 1 .032-.2l2.086-7.793h-3.762l-2.666 9.943a2.429 2.429 0 0 0-.086.6q0 1.01 1.268 1.01h8.062a1.963 1.963 0 0 0 2.042-1.612l2.666-9.943h-3.762z" transform="translate(1716.799 1651.621)"/>
            <path id="Path_27" data-name="Path 27" class="cls-1" d="M-1412.833-1647.859h-8.062a1.956 1.956 0 0 0-2.042 1.613l-2.236 8.33a2.56 2.56 0 0 0-.086.613q0 1 1.269 1h8.061a1.944 1.944 0 0 0 2.043-1.612l2.235-8.33a2.431 2.431 0 0 0 .086-.6q0-1.003-1.268-1.014zm-3.16 3.763-1.075 4.031a.659.659 0 0 1-.688.537h-2.688c-.28 0-.419-.111-.419-.333a.8.8 0 0 1 .032-.2l1.075-4.031a.661.661 0 0 1 .688-.538h2.687q.408.011.408.344a1.011 1.011 0 0 1-.02.186z" transform="translate(1665.128 1651.621)"/>
        </g>
        <path id="Union_2" data-name="Union 2" d="M18.323 57.643A30.1 30.1 0 1 1 30 60a29.91 29.91 0 0 1-11.677-2.357zM2.307 29.947A27.692 27.692 0 1 0 30 2.254 27.724 27.724 0 0 0 2.307 29.947zm2.4.044A25.291 25.291 0 0 1 29.733 4.7a103.25 103.25 0 0 0-3.6 12.115l2.385-.9L27.4 42.46s.075.96-.945.39l-3.569-2.31.96-22.556a52.131 52.131 0 0 0-4.919 11.128l1.77-.42-2.31 13.738s7.049 4.259 8.278 5.549c0 0 .36 1.5 1.2 1.92v5.294A25.294 25.294 0 0 1 4.707 29.99zM32.542 49.9c.84-.42 1.2-1.92 1.2-1.92 1.229-1.289 8.278-5.548 8.278-5.548l-2.31-13.738 1.77.42a52.142 52.142 0 0 0-4.92-11.129l.96 22.556-3.569 2.311c-1.02.57-.945-.39-.945-.39l-1.124-26.548 2.385.9a103.088 103.088 0 0 0-3.594-12.107 25.294 25.294 0 0 1 1.869 50.45z" style="fill:#fdfdfd;stroke:transparent;stroke-miterlimit:10"/>
    </g>
</svg>
