<svg data-name="Component 27 – 1" xmlns="http://www.w3.org/2000/svg" width="34.675" height="28.54" viewBox="0 0 34.675 28.54">
    <path data-name="Path 732" d="M34.533 3.421a14.318 14.318 0 0 1-3.507 1c.564-.094 1.392-1.116 1.725-1.529A6.439 6.439 0 0 0 33.915.77c.031-.06.052-.136-.008-.182a.2.2 0 0 0-.186.015 17.914 17.914 0 0 1-4.158 1.592.279.279 0 0 1-.287-.077 3.237 3.237 0 0 0-.363-.371A7.332 7.332 0 0 0 26.9.512a7.014 7.014 0 0 0-3.089-.5A7.384 7.384 0 0 0 20.88.84a7.552 7.552 0 0 0-2.364 1.931 7.249 7.249 0 0 0-1.412 2.828 7.653 7.653 0 0 0-.075 2.985c.023.167.007.19-.144.167-5.71-.85-10.444-2.893-14.286-7.272-.167-.19-.257-.19-.394.015-1.682 2.521-.866 6.569 1.234 8.559.281.265.569.531.878.773a7.283 7.283 0 0 1-2.757-.773c-.166-.106-.25-.045-.265.144a4.315 4.315 0 0 0 .046.818 7.323 7.323 0 0 0 4.515 5.84 4.263 4.263 0 0 0 .916.281 8.16 8.16 0 0 1-2.7.083c-.2-.038-.273.061-.2.25 1.189 3.243 3.757 4.207 5.68 4.758.257.045.515.045.774.106-.016.023-.031.023-.046.045-.638.973-2.849 1.7-3.88 2.056a13.886 13.886 0 0 1-5.892.754c-.317-.047-.384-.043-.469 0s-.011.13.091.211c.4.265.81.5 1.227.728a19.415 19.415 0 0 0 3.939 1.575c7.078 1.954 15.051.518 20.366-4.762 4.174-4.147 5.637-9.866 5.637-15.592 0-.224.265-.348.422-.466a13.8 13.8 0 0 0 2.772-2.883.876.876 0 0 0 .183-.552v-.03c0-.092 0-.064-.142 0"/>
</svg>
