<svg data-name="Component 26 – 1" xmlns="http://www.w3.org/2000/svg" width="28.47" height="28.54" viewBox="0 0 28.47 28.54">
    <path data-name="Path 733" d="m0 28.54 2.046-7.634a14.126 14.126 0 1 1 5.627 5.579zm8.055-4.916.483.288a11.468 11.468 0 1 0-3.924-3.889l.3.487-1.142 4.262z"/>
    <path data-name="Path 734" d="M25.276 290.862a2.37 2.37 0 0 0-2.019-.455c-.524.215-.859 1.036-1.2 1.454a.5.5 0 0 1-.65.141 9.145 9.145 0 0 1-4.563-3.909.559.559 0 0 1 .071-.764 3.1 3.1 0 0 0 .829-1.345 2.943 2.943 0 0 0-.371-1.593 3.77 3.77 0 0 0-1.176-1.772 1.612 1.612 0 0 0-1.75.26 3.554 3.554 0 0 0-1.232 2.814 3.991 3.991 0 0 0 .111.893 7.377 7.377 0 0 0 .857 1.975 15.682 15.682 0 0 0 .894 1.361 13.823 13.823 0 0 0 3.88 3.6 11.731 11.731 0 0 0 2.419 1.15 5.37 5.37 0 0 0 2.816.445 3.412 3.412 0 0 0 2.554-1.9 1.654 1.654 0 0 0 .119-.97c-.146-.668-1.049-1.065-1.59-1.387" transform="translate(-5.658 -274.805)" style="fill-rule:evenodd"/>
</svg>
